<?xml version="1.0" standalone="no"?>
<!DOCTYPE svg PUBLIC "-//W3C//DTD SVG 20010904//EN"
 "http://www.w3.org/TR/2001/REC-SVG-20010904/DTD/svg10.dtd">
<svg version="1.0" xmlns="http://www.w3.org/2000/svg"
 width="1280.000000pt" height="720.000000pt" viewBox="0 0 1280.000000 720.000000"
 preserveAspectRatio="xMidYMid meet">

<g transform="translate(0.000000,720.000000) scale(0.100000,-0.100000)"
fill="#000000" stroke="none">
<path d="M0 5912 l0 -1287 38 -20 c20 -10 51 -29 67 -40 17 -12 72 -45 122
-74 99 -56 127 -77 118 -92 -11 -17 -43 -9 -112 28 -126 67 -217 113 -225 113
-5 0 -8 -1021 -8 -2270 l0 -2270 6400 0 6400 0 0 590 c0 325 -1 590 -2 591 -6
1 -446 29 -603 39 -93 5 -327 19 -520 30 -192 11 -444 25 -560 30 -115 6 -291
14 -390 20 -190 10 -504 24 -945 40 -243 9 -570 25 -1020 50 -96 5 -299 16
-450 25 -151 8 -387 21 -525 29 -137 8 -365 20 -505 26 -140 6 -295 15 -345
20 -49 5 -199 15 -332 21 -134 7 -243 15 -243 19 0 3 64 14 143 24 264 34 689
33 1297 -4 91 -6 309 -17 485 -26 176 -8 406 -19 510 -25 105 -5 280 -14 390
-19 344 -17 962 -52 1215 -69 174 -12 293 -18 630 -31 140 -6 341 -15 445 -20
317 -17 1000 -50 1168 -57 l157 -6 0 186 0 187 -37 0 c-21 0 -132 4 -248 10
-115 5 -417 14 -670 20 -253 6 -584 15 -735 20 -1005 35 -1404 50 -1470 57
l-75 7 55 7 c189 23 501 21 1390 -10 565 -20 910 -32 1210 -41 168 -5 367 -13
443 -16 l137 -7 0 105 0 105 -177 7 c-98 3 -322 8 -498 11 -372 6 -477 13
-452 27 25 14 617 9 1005 -8 l122 -5 0 59 0 59 -97 6 c-54 4 -143 7 -197 7
-55 0 -97 2 -94 5 4 5 151 11 331 14 l57 1 0 110 0 110 -57 1 c-32 1 -83 4
-113 9 -47 6 -39 7 58 9 l112 1 0 2425 0 2425 -6400 0 -6400 0 0 -1288z m4270
97 c0 -10 -4 -19 -10 -19 -5 0 -10 12 -10 26 0 14 4 23 10 19 6 -3 10 -15 10
-26z m1570 -627 l0 -658 -42 -21 c-24 -11 -56 -24 -73 -28 -16 -3 -43 -13 -60
-20 -16 -8 -102 -41 -190 -75 -88 -33 -179 -68 -202 -77 -23 -10 -46 -14 -50
-9 -4 4 -9 229 -11 499 -2 391 0 492 10 499 7 4 36 8 64 8 57 0 64 7 64 63 0
50 10 57 73 56 66 -2 77 -13 77 -77 l0 -40 93 -11 c50 -7 122 -18 160 -25 l67
-13 0 294 c0 189 4 293 10 293 7 0 10 -226 10 -658z m771 171 c1 -269 4 -501
8 -518 15 -63 23 14 16 139 -4 68 -4 133 0 145 16 52 25 9 27 -141 l3 -163 25
4 c14 1 28 8 32 15 4 6 8 76 8 155 0 116 3 143 13 133 8 -9 12 -53 12 -147 0
-98 3 -135 12 -135 6 0 40 6 75 14 143 31 258 39 353 24 58 -9 89 -18 88 -26
-2 -6 8 -19 21 -27 31 -21 193 -26 204 -8 6 9 28 11 78 7 38 -3 159 -8 269
-10 214 -4 251 -6 305 -17 19 -4 58 -10 85 -12 28 -2 64 -8 80 -14 22 -7 -22
-10 -157 -10 -103 -1 -222 -6 -265 -11 -226 -31 -477 -151 -719 -346 -155
-125 -258 -244 -308 -358 -23 -53 -24 -60 -12 -89 12 -28 14 -29 15 -9 1 12 2
22 4 22 1 0 29 -5 62 -10 33 -6 179 -24 323 -40 163 -19 284 -38 315 -49 29
-11 83 -31 122 -45 38 -14 80 -26 91 -26 27 0 48 25 40 46 -6 16 2 16 91 8 54
-4 640 -9 1303 -10 711 -1 1217 -6 1235 -11 29 -9 27 -10 -31 -21 -34 -7 -103
-30 -153 -52 l-91 -38 0 28 c0 16 -4 31 -9 35 -9 5 -50 -7 -103 -30 -15 -6
-18 -2 -18 18 0 33 -9 38 -51 27 -37 -9 -231 -83 -264 -100 -15 -8 -51 -8
-125 0 -458 49 -434 47 -425 20 5 -16 2 -20 -17 -20 -39 0 -182 30 -192 40
-13 13 -69 13 -61 0 4 -6 -16 -10 -53 -10 -55 0 -60 -2 -55 -20 8 -30 -15 -33
-129 -18 -76 10 -102 17 -100 27 2 11 -11 12 -60 7 -113 -10 -138 -17 -138
-35 0 -23 -64 -37 -235 -51 -319 -26 -523 -66 -603 -118 -59 -39 31 -38 443 3
83 9 256 18 386 22 l235 6 61 -28 c95 -42 96 -70 5 -80 -56 -7 -160 -26 -237
-45 -22 -5 -48 -10 -58 -10 -17 0 -17 1 0 30 9 17 21 30 25 30 4 0 8 7 8 15 0
9 -10 15 -26 15 -42 0 -167 -32 -182 -46 -7 -8 -19 -14 -27 -14 -7 0 -34 -9
-60 -20 -25 -11 -44 -16 -41 -11 6 10 -48 -8 -83 -28 -23 -13 -27 -11 -46 13
-18 23 -28 26 -63 24 -23 -2 -42 -7 -42 -11 0 -5 -4 -5 -10 -2 -5 3 -10 2 -10
-3 0 -9 -37 -25 -53 -23 -4 1 -20 -5 -36 -14 -16 -8 -31 -12 -33 -9 -3 2 -25
-3 -49 -11 -28 -10 -79 -16 -144 -16 -63 0 -102 -4 -106 -11 -5 -7 -45 -12
-104 -13 -67 -2 -99 -6 -105 -15 -10 -17 -152 -18 -158 -1 -7 21 -19 11 -26
-21 -13 -62 -27 -4 -33 132 -3 72 -10 130 -15 130 -4 0 -8 -47 -8 -104 0 -72
-5 -115 -16 -142 -9 -22 -14 -52 -11 -70 5 -29 3 -32 -24 -36 -16 -3 -96 -3
-179 -1 -144 4 -150 3 -150 -16 0 -11 5 -23 10 -26 6 -3 10 -16 10 -28 1 -29
35 -128 42 -121 3 3 15 -6 26 -20 11 -15 25 -26 32 -26 6 0 8 -5 5 -10 -4 -7
-11 -7 -18 -2 -7 5 -19 12 -28 15 -15 5 -15 1 -2 -51 8 -31 20 -66 27 -77 7
-11 17 -51 21 -90 8 -69 10 -79 21 -140 4 -16 8 -60 11 -97 6 -88 14 -93 118
-90 l83 3 6 -28 c3 -15 6 -57 8 -92 3 -58 1 -64 -19 -72 -14 -5 -25 -3 -33 6
-6 7 -19 11 -28 8 -10 -2 -30 7 -47 23 l-30 27 -11 -40 c-7 -22 -12 -75 -13
-119 0 -43 -4 -108 -7 -144 -9 -91 -3 -95 134 -86 59 4 149 15 201 26 52 10
100 16 108 13 7 -3 21 1 31 10 9 8 34 22 55 32 45 21 87 9 87 -24 0 -25 20
-38 31 -20 7 12 14 11 40 -3 38 -22 63 -23 55 -3 -4 12 4 15 42 16 123 3 163
6 169 12 3 4 18 7 32 7 44 0 68 11 79 35 12 25 59 41 92 30 11 -4 28 -21 37
-38 21 -42 21 -43 93 -39 50 3 63 8 67 22 4 15 16 18 84 18 45 0 79 -5 79 -10
0 -6 -7 -7 -16 -4 -18 7 -48 -19 -39 -34 10 -16 45 -12 45 5 0 9 9 15 25 15
16 0 25 6 25 15 0 17 26 20 35 5 8 -13 35 6 35 25 0 31 56 32 105 4 22 -14 52
-21 78 -21 23 1 88 1 145 2 56 0 128 6 160 13 37 9 74 10 107 5 28 -4 56 -6
63 -3 7 3 106 4 220 4 114 -1 288 0 387 1 382 6 631 6 659 2 20 -4 32 -14 42
-38 19 -45 20 -44 -28 -44 -24 0 -72 -5 -108 -10 -36 -5 -135 -12 -220 -15
-157 -5 -350 -15 -405 -20 -16 -2 -138 -4 -270 -4 -132 -1 -341 -6 -465 -11
-124 -5 -373 -14 -555 -20 -485 -16 -709 -30 -795 -50 -25 -5 -90 -15 -145
-20 -55 -6 -125 -15 -155 -21 -30 -5 -64 -10 -75 -10 -10 0 -24 -4 -30 -8 -9
-8 -59 -16 -159 -27 -21 -2 -44 -8 -50 -13 -6 -4 -31 -11 -56 -15 -25 -3 -70
-10 -100 -16 -30 -5 -88 -13 -127 -16 -87 -8 -88 -7 -73 97 25 182 31 246 40
424 13 259 14 555 3 585 -7 16 -7 35 -1 53 6 15 7 35 3 45 -7 15 -8 15 -15 -3
-8 -19 -9 -19 -9 2 -1 12 -6 25 -12 29 -8 5 -8 9 1 14 8 5 -2 36 -35 106 -26
54 -50 101 -53 104 -14 11 -41 77 -47 115 -3 22 -8 56 -11 77 -4 25 -12 38
-25 41 -15 4 -19 13 -17 33 2 22 -2 29 -20 33 -12 3 -48 27 -80 52 -93 75
-172 110 -357 160 -168 46 -277 59 -465 55 -179 -3 -271 -20 -445 -79 -104
-36 -277 -116 -295 -138 -3 -3 -25 -19 -50 -34 -64 -40 -155 -117 -230 -196
-57 -59 -71 -68 -110 -73 -63 -8 -840 -19 -840 -12 0 3 11 22 25 42 32 47 33
111 3 165 -35 63 -106 100 -258 134 -41 9 -103 23 -137 31 -34 8 -120 17 -192
21 -72 3 -131 10 -131 14 0 29 346 134 705 212 842 185 1231 230 2205 256 295
8 369 13 440 30 78 18 98 19 242 9 l157 -11 63 47 c35 26 92 68 128 93 36 26
88 63 115 83 205 150 523 358 640 418 130 67 107 113 -65 127 -58 4 -155 0
-304 -14 -121 -12 -221 -20 -222 -18 -2 2 20 19 48 38 75 49 75 64 2 55 -287
-33 -594 -117 -607 -165 -3 -13 -29 -24 -93 -39 -49 -12 -124 -32 -167 -44
-42 -11 -79 -19 -81 -17 -6 6 -8 121 -7 398 l1 254 63 -6 c35 -3 70 -7 78 -9
10 -2 15 10 19 42 4 32 10 46 22 48 14 3 17 -6 20 -50 l3 -53 50 -7 c28 -4 88
-12 135 -17 47 -6 112 -15 145 -20 32 -6 63 -7 67 -3 4 4 8 159 9 345 1 185 6
337 10 337 5 0 10 -219 10 -487z m-1249 370 c9 -11 9 -19 0 -34 -15 -23 -15
-29 -2 -29 6 0 10 7 10 16 0 9 7 14 18 12 17 -4 20 -20 7 -50 -4 -10 -3 -18 3
-18 6 0 16 16 22 35 10 29 16 35 38 33 60 -4 84 2 89 22 6 22 33 28 33 8 0 -7
-9 -35 -19 -63 -17 -45 -23 -51 -55 -56 -24 -4 -40 -1 -47 7 -9 11 -13 11 -24
0 -15 -15 -66 -10 -77 7 -4 8 -14 8 -30 1 -13 -6 -39 -10 -58 -10 -41 1 -43
14 -11 88 18 42 22 46 55 46 19 0 41 -7 48 -15z m-303 -135 c0 -61 -3 -86 -9
-73 -12 28 -12 165 0 165 6 0 10 -37 9 -92z m403 -55 c29 -26 22 -43 -17 -43
-30 0 -35 3 -35 23 0 40 21 48 52 20z m-1042 -19 c0 -4 -8 -13 -17 -20 -15
-11 -16 -16 -5 -34 9 -16 10 -25 1 -42 -9 -17 -8 -24 5 -33 21 -16 20 -25 -4
-25 -24 0 -40 28 -40 74 0 51 16 86 40 86 11 0 20 -3 20 -6z m425 -5 c4 -6 5
-12 4 -13 -9 -8 -359 8 -359 15 0 13 347 11 355 -2z m1105 -34 c-7 -8 -9 -22
-6 -31 4 -9 3 -26 -1 -38 -6 -17 -8 -14 -13 18 -9 67 -30 57 -30 -14 0 -51 3
-60 16 -58 10 2 19 -2 21 -8 3 -10 -56 -27 -65 -19 -7 7 -7 131 0 148 5 12 19
17 49 17 36 0 40 -2 29 -15z m492 -3 c3 -4 7 -32 8 -62 4 -101 28 -91 -210
-87 -116 2 -214 7 -217 11 -15 14 19 22 67 16 l50 -6 0 58 0 58 -49 0 c-52 0
-84 8 -77 19 5 8 419 1 428 -7z m-1380 -760 c2 -367 0 -492 -9 -492 -6 0 -13
22 -16 53 -2 28 -9 93 -15 142 -25 201 -32 296 -32 418 l0 127 25 0 c24 0 25
2 25 70 l0 70 -30 0 -30 0 0 85 0 85 30 0 30 0 -1 58 c-1 31 2 80 7 107 11 61
13 -17 16 -723z m-479 751 c5 -9 -11 -58 -17 -52 -2 2 -6 16 -10 32 -5 20 -3
27 8 27 8 0 17 -3 19 -7z m265 -6 c5 -17 1 -47 -7 -47 -5 0 -12 10 -15 23 -6
22 -7 22 -22 -5 -18 -34 -49 -36 -65 -6 -11 20 -13 20 -24 5 -15 -21 -25 -22
-25 -2 0 21 -9 19 -30 -7 -15 -19 -22 -21 -37 -12 -25 15 -29 51 -6 56 35 6
228 3 231 -5z m-333 -8 c11 -17 -1 -21 -15 -4 -8 9 -8 15 -2 15 6 0 14 -5 17
-11z m-246 -701 c1 -426 -2 -648 -9 -648 -6 0 -10 53 -10 139 l0 140 -52 5
c-29 3 -66 7 -83 8 l-30 3 -6 160 c-12 307 -10 615 4 620 6 3 46 8 87 13 l75
7 4 125 c2 80 6 116 11 100 4 -14 8 -316 9 -672z m636 622 c12 -5 -67 -9 -197
-9 -139 -1 -218 3 -218 9 0 12 386 12 415 0z m-218 -84 l6 -46 51 7 c28 5 76
8 106 8 l55 0 6 -65 c3 -36 2 -96 -3 -135 -23 -204 -40 -399 -48 -559 -5 -99
-13 -183 -17 -186 -5 -4 -66 1 -138 11 -71 9 -159 21 -195 26 l-65 8 -5 410
c-3 226 -3 420 -2 431 4 19 13 23 80 29 124 11 122 10 122 65 0 30 5 50 13 53
20 7 29 -8 34 -57z m447 -12 c4 -9 3 -239 0 -510 -6 -377 -10 -494 -19 -494
-21 0 -25 54 -25 370 0 261 2 309 15 320 10 8 15 31 15 65 0 38 -4 55 -15 59
-12 4 -15 25 -15 99 0 52 3 97 7 100 12 12 31 7 37 -9z m770 -41 c15 -55 -3
-178 -24 -157 -8 9 -14 76 -11 142 1 35 26 45 35 15z m-1545 -160 c-1 -157
-12 -145 -23 25 -6 98 -5 112 8 112 14 0 16 -19 15 -137z m7678 -1016 c133 -2
247 -1 254 3 6 5 9 15 6 22 -6 18 -77 28 -193 28 -161 0 -294 12 -294 27 0 7
8 13 18 14 103 4 592 -8 599 -15 3 -2 4 -166 3 -439 0 -124 -2 -138 -17 -135
-27 5 -34 54 -31 203 l3 140 -40 0 c-27 0 -51 8 -70 23 -27 20 -28 22 -8 20
12 -2 22 2 23 7 1 15 -86 23 -260 26 -186 2 -209 5 -219 32 -8 20 -8 20 -14
-4 -3 -13 -7 -278 -8 -589 -1 -311 -4 -582 -7 -602 -3 -25 -9 -38 -19 -38 -13
0 -15 43 -10 349 2 192 8 354 12 361 5 8 1 19 -11 28 -12 9 -15 16 -7 19 8 3
12 65 13 225 1 191 -1 222 -15 232 -20 14 -11 66 11 66 10 0 14 10 12 30 -1
17 -6 30 -10 30 -4 0 -8 7 -8 15 0 8 5 15 10 15 6 0 10 41 10 103 l0 102 -58
0 c-39 -1 -74 -9 -112 -26 -30 -14 -76 -29 -102 -32 l-47 -6 -6 52 c-4 29 -5
79 -3 112 l3 60 93 8 c52 5 100 6 108 3 10 -4 14 -24 14 -73 0 -68 0 -69 32
-81 22 -8 35 -8 44 -1 7 6 17 8 22 5 6 -3 13 147 18 372 l9 377 5 -532 5 -533
242 -3z m-7081 842 c3 -96 9 -226 14 -289 5 -63 12 -162 16 -219 l7 -104 -52
5 c-28 3 -54 7 -56 10 -6 6 7 239 31 538 23 304 32 317 40 59z m942 -146 c-3
-190 -8 -230 -29 -218 -10 7 -13 398 -2 408 3 4 13 7 21 7 12 0 13 -32 10
-197z m-1570 -88 c0 -66 -3 -145 -7 -175 l-6 -55 -8 85 c-9 112 -9 385 1 394
10 11 19 -106 20 -249z m5452 190 c0 -8 -4 -15 -10 -15 -5 0 -10 7 -10 15 0 8
5 15 10 15 6 0 10 -7 10 -15z m1879 -74 c8 -13 -2 -178 -12 -187 -4 -4 -13 -2
-19 4 -9 9 -14 6 -23 -11 -9 -18 -19 -22 -60 -22 l-50 0 0 55 c0 55 0 55 33
58 33 3 33 4 31 53 -2 35 2 54 12 60 16 11 80 4 88 -10z m-3182 -37 c-3 -3
-12 -4 -19 -1 -8 3 -5 6 6 6 11 1 17 -2 13 -5z m-6273 -147 c17 -12 17 -25 11
-154 l-7 -141 -32 -5 c-47 -8 -88 3 -82 20 3 8 1 23 -4 34 -9 15 -6 24 14 44
14 14 30 25 36 25 23 0 8 21 -19 26 -26 5 -29 11 -35 56 -8 57 3 78 41 78 13
0 26 7 29 15 7 18 24 19 48 2z m176 -52 c0 -8 -4 -15 -10 -15 -5 0 -10 7 -10
15 0 8 5 15 10 15 6 0 10 -7 10 -15z m6960 -35 c0 -5 -6 -10 -14 -10 -8 0 -18
5 -21 10 -3 6 3 10 14 10 12 0 21 -4 21 -10z m-8490 -81 c0 -5 -12 -9 -27 -9
-16 0 -38 -3 -50 -6 -16 -5 -23 -2 -23 8 0 11 14 15 50 16 28 0 50 -3 50 -9z
m6590 -79 c0 -5 -4 -10 -10 -10 -5 0 -10 5 -10 10 0 6 5 10 10 10 6 0 10 -4
10 -10z m-5405 -20 c-27 -12 -43 -12 -25 0 8 5 22 9 30 9 10 0 8 -3 -5 -9z
m5215 -20 c0 -5 -4 -10 -10 -10 -5 0 -10 5 -10 10 0 6 5 10 10 10 6 0 10 -4
10 -10z m-2552 -128 l3 -103 -38 3 -38 3 -3 89 c-4 111 -1 118 40 114 l33 -3
3 -103z m-1162 63 c4 -8 3 -22 0 -31 -6 -15 -8 -15 -25 0 -15 14 -24 15 -40 7
-25 -14 -138 -14 -146 -1 -4 6 -4 17 -1 25 8 22 204 22 212 0z m1456 -43 c8
-8 -2 -14 -36 -23 -25 -6 -49 -15 -52 -20 -9 -16 -24 -9 -24 10 0 41 81 64
112 33z m6868 8 c0 -5 -5 -10 -11 -10 -5 0 -7 5 -4 10 3 6 8 10 11 10 2 0 4
-4 4 -10z m-1780 -26 c0 -8 -5 -12 -10 -9 -6 4 -8 11 -5 16 9 14 15 11 15 -7z
m1230 -3 c0 -5 -28 -12 -62 -15 -35 -4 -142 -15 -238 -26 -96 -10 -227 -23
-290 -30 -63 -6 -162 -18 -220 -26 -58 -8 -143 -19 -190 -24 -47 -5 -98 -11
-115 -13 -31 -5 -55 0 -55 12 0 10 240 37 570 66 133 11 561 57 593 64 4 0 7
-3 7 -8z m-6470 -32 c0 -6 -4 -7 -10 -4 -5 3 -10 11 -10 16 0 6 5 7 10 4 6 -3
10 -11 10 -16z m6217 -85 c-3 -3 -12 -4 -19 -1 -8 3 -5 6 6 6 11 1 17 -2 13
-5z m-417 -110 c0 -8 -7 -14 -15 -14 -15 0 -21 21 -9 33 10 9 24 -2 24 -19z
m689 4 c12 -19 11 -23 -3 -33 -20 -15 -20 -35 -1 -61 15 -20 19 -52 9 -78 -8
-21 -41 -21 -61 0 -12 12 -32 15 -82 13 -95 -4 -151 0 -151 10 0 8 114 87 143
99 4 2 33 19 64 38 31 19 59 34 63 34 3 0 11 -10 19 -22z m-729 7 c0 -2 -9
-20 -19 -39 -11 -18 -21 -47 -23 -62 -2 -22 -9 -30 -28 -33 -24 -3 -24 -2 -8
15 9 11 22 39 28 64 7 25 14 48 17 53 5 8 33 10 33 2z m1058 -82 l-3 -68 -100
-6 c-55 -3 -103 -3 -107 1 -4 3 -12 27 -17 53 -6 35 -5 51 6 67 13 18 25 20
119 20 l105 0 -3 -67z m565 60 c-7 -2 -19 -2 -25 0 -7 3 -2 5 12 5 14 0 19 -2
13 -5z m-330 -35 c12 -7 23 -14 25 -15 2 0 -4 -10 -14 -21 -14 -17 -21 -18
-40 -10 -15 7 -24 20 -24 35 0 26 18 30 53 11z m-187 -204 c1 -200 -4 -238
-31 -228 -12 5 -15 27 -15 109 0 59 4 107 10 110 6 3 10 52 10 111 0 80 3 105
13 101 9 -3 12 -53 13 -203z m-9168 187 c19 -10 182 -41 222 -42 24 -1 24 -1
-5 -14 -19 -8 -36 -10 -47 -4 -9 5 -36 9 -60 9 -24 1 -62 5 -86 9 -29 6 -62 4
-105 -6 -34 -8 -82 -14 -107 -13 -43 1 -144 -14 -290 -45 -131 -28 -143 -29
-138 -14 3 8 27 17 59 22 70 9 445 84 484 96 40 12 52 13 73 2z m9559 -53 c12
-6 31 -8 42 -5 20 5 49 -18 37 -30 -3 -3 -32 2 -63 11 -32 10 -77 20 -100 23
-45 5 -54 16 -26 31 16 9 51 0 110 -30z m-10737 12 c-34 -11 -60 -11 -35 0 11
5 29 8 40 8 16 0 15 -2 -5 -8z m10050 -20 c0 -23 -5 -30 -19 -30 -26 0 -34 15
-21 40 17 31 40 25 40 -10z m893 1 c-2 -10 -1 -34 4 -52 11 -39 -8 -99 -43
-143 -24 -29 -34 -33 -34 -12 0 22 -24 38 -38 24 -16 -16 -28 -2 -14 15 7 8 9
17 5 20 -3 4 2 9 11 12 9 3 23 7 31 10 13 4 12 11 -4 48 -22 51 -14 67 31 67
16 0 31 7 34 15 9 22 23 18 17 -4z m-2263 -50 c0 -4 -14 -22 -30 -40 -36 -37
-90 -44 -90 -12 0 10 6 24 14 30 28 23 106 39 106 22z m-8160 -21 c0 -5 -10
-10 -22 -10 -19 0 -20 2 -8 10 19 13 30 13 30 0z m8294 2 c9 -16 -21 -40 -54
-43 -42 -4 -47 10 -11 33 28 18 57 23 65 10z m-8782 -78 c3 -27 7 -89 7 -137
1 -79 -1 -88 -16 -85 -22 4 -33 95 -25 206 6 84 23 92 34 16z m696 3 c2 -36 0
-47 -11 -47 -8 0 -17 7 -21 15 -4 11 -22 15 -76 15 -45 0 -69 4 -65 10 3 6 33
10 66 10 55 0 60 2 69 26 15 39 35 24 38 -29z m9813 12 c42 -44 50 -69 21 -69
-18 0 -61 26 -74 44 -12 17 -9 66 3 66 6 0 28 -18 50 -41z m176 22 c22 -11 49
-17 61 -14 13 3 22 1 22 -6 0 -6 -3 -11 -8 -11 -4 0 -12 -10 -17 -22 -20 -45
-68 -32 -80 23 -4 16 -11 29 -16 29 -5 0 -9 5 -9 10 0 13 0 13 47 -9z m-997
-8 c0 -11 -3 -14 -8 -7 -4 6 -14 14 -22 17 -10 4 -8 6 8 6 15 1 22 -5 22 -16z
m-9585 -38 c0 -12 -50 -19 -71 -11 -9 3 -12 11 -9 16 8 14 80 9 80 -5z m385 5
c0 -5 -19 -10 -42 -9 -37 1 -39 2 -18 9 36 12 60 12 60 0z m9378 -15 c3 -3 0
-5 -7 -5 -7 0 -9 -4 -6 -10 3 -5 -1 -10 -10 -10 -13 0 -14 -4 -5 -20 6 -11 8
-20 4 -20 -3 0 -1 -7 6 -15 16 -19 0 -19 -26 0 -10 8 -25 15 -32 15 -17 0 -43
26 -35 34 3 3 1 12 -5 19 -7 8 -8 17 -4 21 7 8 111 0 120 -9z m-151 -1 c-3 -3
-12 -4 -19 -1 -8 3 -5 6 6 6 11 1 17 -2 13 -5z m526 -219 c-1 -99 -2 -243 -3
-320 l-2 -140 -14 70 c-8 39 -19 113 -24 165 -11 113 -13 394 -3 404 4 4 16 6
28 4 19 -3 20 -9 18 -183z m-9663 165 c0 -5 -4 -10 -10 -10 -5 0 -10 5 -10 10
0 6 5 10 10 10 6 0 10 -4 10 -10z m6274 -6 c4 -9 5 -19 3 -21 -2 -2 -55 -8
-118 -14 -63 -6 -192 -19 -286 -28 -242 -24 -229 -1 22 39 273 44 369 50 379
24z m3644 -13 l33 -28 -28 -6 c-31 -6 -53 13 -53 45 0 24 9 22 48 -11z m-2091
-36 c13 -57 16 -101 6 -92 -3 4 -12 2 -19 -4 -7 -6 -48 -13 -91 -16 -57 -3
-74 -2 -63 6 8 6 22 11 30 11 21 0 92 59 85 71 -7 10 -208 13 -218 3 -3 -3 -2
-15 4 -25 5 -10 13 -28 18 -38 15 -29 3 -32 -52 -10 -58 23 -67 32 -67 72 0
37 24 45 175 62 179 20 178 20 192 -40z m2357 39 c5 -14 4 -15 -9 -4 -17 14
-19 20 -6 20 5 0 12 -7 15 -16z m-10194 -53 c0 -10 -7 -22 -16 -25 -22 -8 -21
-9 -26 19 -4 21 -1 25 18 25 17 0 24 -6 24 -19z m-395 0 c19 -7 19 -8 0 -18
-28 -16 -151 -1 -140 17 7 12 111 12 140 1z m10860 -199 c0 -174 2 -195 18
-207 10 -7 17 -17 16 -21 -4 -22 2 -34 17 -34 9 0 14 -7 12 -17 -2 -10 -12
-18 -23 -18 -13 0 -21 -8 -23 -23 -3 -20 -8 -23 -40 -20 -33 3 -37 6 -40 33
-5 47 -11 60 -24 47 -6 -6 -17 -8 -24 -5 -9 3 -14 -2 -14 -16 0 -12 -4 -21 -9
-21 -10 0 -34 87 -27 99 3 5 29 4 57 -1 35 -6 55 -6 62 1 14 14 -4 20 -68 23
-49 3 -50 4 -53 36 -2 19 -1 41 2 49 5 12 9 12 27 -1 29 -20 59 -5 59 29 0 14
6 25 14 25 15 0 26 79 26 182 0 51 3 59 17 56 16 -3 17 -22 18 -196z m-251
132 c23 -20 27 -30 22 -54 -3 -17 -9 -43 -12 -59 -4 -19 0 -38 10 -53 30 -43
18 -133 -20 -142 -32 -8 -74 3 -74 19 0 7 -12 18 -27 24 -16 6 -35 16 -44 22
-12 9 -21 6 -43 -16 -22 -22 -25 -30 -14 -36 9 -6 7 -9 -9 -9 -12 0 -23 5 -25
12 -2 6 -22 12 -44 13 -56 1 -64 9 -64 67 l0 50 98 -2 c53 -1 104 -2 112 -1
10 1 21 19 29 49 41 150 52 162 105 116z m127 -51 c-1 -32 -8 -68 -15 -81 -11
-21 -13 -19 -30 39 l-19 61 29 23 c16 13 31 21 33 19 3 -2 3 -30 2 -61z
m-9643 20 c2 -8 -6 -13 -22 -13 -28 0 -43 15 -24 23 20 8 41 3 46 -10z m62
-23 c0 -32 -19 -40 -39 -16 -15 18 -3 46 20 46 14 0 19 -7 19 -30z m540 10 c0
-5 -2 -10 -4 -10 -3 0 -8 5 -11 10 -3 6 -1 10 4 10 6 0 11 -4 11 -10z m5060
-12 c-1 -13 -92 -88 -335 -275 -66 -51 -134 -105 -152 -119 -36 -29 -172 -62
-366 -89 -157 -22 -237 -19 -330 10 -43 14 -91 25 -107 25 -27 0 -30 3 -30 32
0 42 -17 25 -22 -21 l-3 -35 -79 -13 c-43 -7 -81 -11 -84 -8 -7 7 18 62 36 78
20 18 124 59 131 52 2 -3 11 1 20 9 9 7 33 16 53 19 21 3 81 26 135 51 80 37
130 52 275 81 180 35 213 46 350 108 42 20 79 33 82 30 3 -3 -2 -19 -11 -34
-9 -16 -14 -31 -11 -35 16 -16 255 62 378 123 52 25 70 28 70 11z m-5085 -20
c14 -21 14 -23 -2 -29 -15 -5 -14 -8 5 -27 12 -12 31 -22 42 -22 12 0 20 -7
20 -16 0 -10 -6 -14 -14 -11 -21 8 -8 -27 18 -52 16 -15 37 -22 68 -23 70 -1
80 -13 38 -48 -50 -43 -99 -42 -146 5 -24 24 -44 35 -65 35 -17 0 -32 6 -35
15 -4 8 -11 12 -17 8 -7 -4 -18 -8 -27 -9 -100 -16 -97 -14 -96 -47 1 -23 -4
-32 -17 -35 -15 -3 -17 1 -11 25 11 46 10 48 -16 45 -70 -9 -234 -12 -220 -3
33 20 138 44 187 42 58 -2 73 12 73 66 0 32 16 53 40 53 8 0 21 9 28 20 7 11
21 20 32 20 13 0 20 -7 20 -20 0 -14 7 -20 21 -20 17 0 19 3 10 13 -8 10 -7
17 1 25 19 19 45 14 63 -10z m-1625 -16 c-60 -46 -112 -104 -101 -115 5 -5 17
-5 29 2 11 6 63 11 115 11 90 0 98 2 231 55 75 30 142 55 148 55 29 0 -21 -24
-221 -105 -162 -66 -220 -94 -238 -116 -28 -33 -57 -37 -73 -11 -10 15 -11 15
-5 -3 4 -11 9 -36 12 -56 l5 -37 487 5 c417 5 488 8 504 21 15 14 19 13 37 -3
18 -16 37 -17 227 -11 114 3 402 8 638 11 237 3 567 8 734 11 l304 6 -7 -63
c-19 -191 -38 -261 -98 -378 -32 -63 -68 -126 -78 -142 -11 -15 -20 -32 -20
-38 0 -6 -4 -20 -10 -31 -5 -11 -15 -29 -20 -40 -6 -11 -13 -42 -16 -68 -12
-101 -41 -142 -98 -142 -34 0 -83 -20 -70 -28 6 -4 14 -15 17 -26 5 -13 13
-17 30 -12 50 15 90 19 84 9 -4 -6 -28 -14 -54 -17 -27 -4 -66 -13 -88 -21
-87 -30 -156 -48 -162 -42 -8 9 77 180 136 270 28 43 51 80 51 82 0 3 -10 5
-23 5 -32 0 -563 -328 -612 -378 -30 -31 -51 -43 -82 -48 -54 -8 -56 -24 -3
-24 41 0 53 -17 27 -38 -20 -17 -122 -30 -251 -31 -123 -2 -216 -16 -216 -32
0 -5 50 -6 120 -2 118 6 139 1 107 -25 -7 -6 -78 -25 -157 -42 -158 -35 -173
-40 -145 -50 21 -8 118 9 271 45 122 29 241 36 254 15 13 -20 -5 -46 -37 -55
l-28 -8 40 -12 c39 -12 40 -13 15 -23 -14 -5 -56 -12 -95 -16 -38 -4 -84 -12
-101 -17 -30 -9 -82 -54 -73 -64 3 -2 59 -9 124 -14 66 -6 147 -17 180 -25 76
-19 168 -20 322 -1 132 15 285 21 300 12 6 -4 23 -3 39 2 59 17 97 -26 41 -46
-30 -10 -547 -5 -747 8 -91 5 -271 12 -400 15 -578 11 -899 21 -1225 37 -558
28 -552 28 -572 42 -17 13 -17 16 5 55 13 23 22 44 19 46 -6 6 -109 23 -247
39 -63 8 -163 22 -221 31 -104 17 -107 17 -145 -3 -24 -12 -40 -28 -42 -42 -4
-22 -4 -22 -150 -15 -189 9 -198 19 -84 101 60 43 115 95 135 129 4 7 3 59 -3
116 -5 57 -10 110 -11 118 0 8 -7 70 -15 137 -8 67 -14 147 -14 179 l0 58 29
-31 c16 -18 41 -35 55 -39 14 -3 26 -10 26 -14 0 -4 16 -18 36 -31 46 -31 145
-157 268 -341 27 -40 68 -95 90 -122 35 -42 38 -50 27 -68 -7 -11 -11 -21 -9
-23 26 -21 72 -28 239 -33 l188 -5 12 29 c8 19 11 110 10 274 -2 436 -12 479
-116 495 -22 3 -112 7 -200 8 -135 2 -163 5 -180 19 -11 10 -29 24 -39 32 -19
13 -19 15 -3 30 9 10 17 28 17 42 0 24 -1 24 -67 18 -38 -4 -70 -8 -72 -10
-10 -9 -31 20 -31 42 0 12 -4 26 -10 29 -16 10 -64 -18 -69 -40 -5 -28 -58
-93 -81 -100 -30 -10 -90 16 -90 37 0 29 38 96 63 112 12 7 39 19 60 26 44 14
167 84 182 103 6 7 18 16 28 20 9 4 22 18 27 32 5 14 15 25 22 25 7 0 31 12
53 26 39 24 39 25 11 21 -37 -6 -83 10 -70 23 6 6 30 14 54 19 25 5 60 14 77
19 27 9 34 8 42 -6 8 -13 15 -14 47 -5 45 14 146 28 294 43 216 22 198 16 264
74 62 54 106 86 116 86 3 -1 -11 -13 -30 -28z m610 -13 c0 -5 -7 -9 -15 -9
-15 0 -20 12 -9 23 8 8 24 -1 24 -14z m-1070 2 c0 -5 -14 -14 -30 -21 -24 -10
-33 -10 -45 0 -24 20 -18 27 30 28 25 1 45 -2 45 -7z m-104 -10 c-3 -4 -59
-32 -123 -62 -127 -57 -220 -104 -241 -121 -9 -8 -16 -8 -24 0 -16 16 1 31 72
67 30 15 72 36 93 47 20 11 66 28 101 38 36 10 73 23 83 29 22 13 46 14 39 2z
m2335 -17 c10 -13 10 -17 -2 -24 -11 -7 -11 -12 -2 -21 9 -9 15 -9 27 0 17 15
25 3 17 -25 -5 -18 -10 -20 -29 -13 -12 5 -25 15 -28 24 -4 8 -12 15 -20 15
-9 0 -14 11 -14 30 0 23 5 30 19 30 10 0 24 -7 32 -16z m8303 -40 c22 -8 20
-27 -4 -49 -20 -18 -20 -17 -20 18 0 40 0 40 24 31z m-9090 -21 c4 -9 1 -20
-6 -25 -26 -16 -35 -7 -22 26 8 21 20 20 28 -1z m56 3 c0 -8 3 -21 6 -30 4
-10 1 -16 -9 -16 -17 0 -32 34 -22 50 9 15 25 12 25 -4z m-190 -28 c0 -30 -15
-52 -29 -44 -12 8 -15 49 -4 59 14 15 33 6 33 -15z m-172 -29 c-2 -6 -8 -10
-13 -10 -5 0 -11 4 -13 10 -2 6 4 11 13 11 9 0 15 -5 13 -11z m282 -14 c0 -9
9 -15 23 -15 28 -1 69 -32 59 -45 -17 -24 -68 -35 -167 -35 -58 0 -105 3 -105
6 0 3 5 14 11 25 7 14 16 18 30 14 11 -4 27 -1 35 6 11 9 18 8 32 -5 23 -20
43 -21 36 -1 -7 17 21 65 36 65 6 0 10 -7 10 -15z m-290 -47 c0 -16 -3 -19
-11 -11 -6 6 -8 16 -5 22 11 17 16 13 16 -11z m980 8 c0 -3 -4 -8 -10 -11 -5
-3 -10 -1 -10 4 0 6 5 11 10 11 6 0 10 -2 10 -4z m180 -16 c0 -5 -4 -10 -10
-10 -5 0 -10 5 -10 10 0 6 5 10 10 10 6 0 10 -4 10 -10z m-550 -30 c0 -8 -51
-21 -88 -22 -31 0 -54 10 -48 21 7 11 136 12 136 1z m8430 6 c0 -11 -19 -15
-25 -6 -3 5 1 10 9 10 9 0 16 -2 16 -4z m885 -6 c10 -17 -5 -70 -21 -70 -13 0
-19 -13 -15 -33 1 -5 -3 -6 -9 -2 -6 4 -8 15 -5 25 4 13 0 20 -15 25 -23 7
-44 40 -35 55 8 13 92 13 100 0z m285 0 c0 -5 -5 -10 -11 -10 -5 0 -7 5 -4 10
3 6 8 10 11 10 2 0 4 -4 4 -10z m-496 -72 c3 -16 2 -28 -3 -28 -11 0 -22 40
-15 52 8 12 10 9 18 -24z m-6277 -35 c-3 -10 -15 -49 -26 -88 -41 -140 -153
-325 -197 -325 -22 0 -17 12 37 90 55 78 100 168 119 240 17 63 38 100 56 100
11 0 15 -6 11 -17z m38 -54 c11 -17 -36 -177 -77 -261 -44 -90 -114 -198 -128
-198 -19 0 -10 28 28 86 41 63 82 155 82 185 0 10 4 20 9 23 4 3 18 38 30 78
12 40 24 79 26 86 5 15 21 16 30 1z m3837 -49 c5 0 17 14 27 30 l18 31 11 -43
c16 -65 23 -128 14 -128 -5 0 -21 14 -38 31 -16 17 -57 51 -91 76 -35 25 -63
49 -63 55 0 5 26 -4 57 -21 31 -17 60 -31 65 -31z m205 -2 c-4 -35 -10 -85
-13 -111 l-7 -48 49 6 c73 10 133 6 191 -12 43 -13 56 -13 68 -3 21 17 260 16
301 -1 l29 -13 -25 -3 c-14 -2 -50 -11 -80 -20 -43 -12 -101 -15 -267 -14
-116 1 -223 -1 -237 -5 -23 -5 -26 -11 -26 -53 0 -55 -17 -121 -58 -221 -38
-94 -80 -170 -95 -170 -7 0 -8 -3 -1 -10 10 -10 282 3 349 16 49 10 98 43 131
87 37 51 47 78 74 187 20 81 49 130 80 130 25 0 0 -183 -43 -309 -42 -122
-110 -159 -306 -167 -58 -2 -178 -8 -266 -14 -352 -22 -628 -35 -1370 -65
-517 -21 -738 -33 -950 -50 -317 -26 -305 -25 -305 -12 0 7 21 23 48 36 41 21
69 25 227 32 99 4 275 13 390 19 187 9 375 18 800 36 125 5 326 16 620 34 77
5 194 12 260 16 78 5 134 13 161 24 85 37 145 135 163 266 16 115 17 113 -26
111 -21 -1 -40 -5 -43 -9 -3 -4 -105 -10 -225 -13 -221 -5 -422 -18 -482 -30
-24 -5 -33 -4 -33 5 0 10 -21 11 -92 5 -51 -4 -137 -8 -192 -9 -76 -2 -100 -6
-107 -17 -6 -12 -21 -15 -62 -11 -32 2 -63 -1 -77 -8 -18 -9 -24 -9 -30 0 -6
10 -41 9 -164 -2 -86 -7 -156 -10 -156 -6 0 13 -70 21 -84 9 -7 -6 -45 -16
-82 -22 -73 -10 -81 -11 -145 -8 -22 1 -45 -3 -52 -10 -6 -6 -21 -11 -33 -11
-13 0 -25 -4 -28 -8 -7 -12 -171 -24 -281 -21 -49 2 -112 2 -140 1 -65 -3
-115 14 -115 38 0 12 10 21 30 25 27 6 30 11 30 43 l0 37 88 18 c48 11 97 19
110 18 13 0 33 4 45 10 11 7 39 13 61 14 23 1 70 8 106 14 36 6 71 12 78 13 6
1 12 5 12 10 0 5 4 7 9 4 5 -4 22 -1 37 4 19 8 29 8 34 0 5 -7 24 -6 64 4 31
8 94 18 139 21 45 4 141 13 212 21 249 29 1033 50 1180 33 44 -5 130 -12 190
-14 61 -3 134 -10 164 -15 88 -16 86 -18 100 58 7 37 16 78 21 92 5 14 11 37
14 53 4 16 13 27 23 27 13 0 15 -9 10 -62z m-4580 17 c9 -19 13 -38 10 -42
-11 -10 -35 18 -42 50 -10 39 12 34 32 -8z m-57 -26 c12 -23 19 -43 17 -46 -7
-6 -57 61 -57 75 0 25 21 10 40 -29z m4900 15 c10 -26 3 -134 -9 -134 -4 0
-26 20 -50 44 -47 48 -51 79 -13 84 13 2 26 10 29 18 8 23 33 16 43 -12z
m2218 -14 c4 -37 -24 -103 -39 -94 -5 3 -9 17 -9 30 0 40 -25 23 -28 -19 -3
-29 -7 -37 -23 -37 -16 0 -19 8 -21 45 -4 103 -5 99 27 106 17 4 44 6 60 6 27
-2 30 -6 33 -37z m-1413 -10 c4 -6 10 -8 15 -5 5 3 14 -11 19 -32 12 -43 13
-68 2 -38 -5 12 -11 -27 -15 -100 -4 -69 -12 -122 -18 -126 -13 -9 -37 -1 -60
18 -15 13 -15 18 -1 59 18 52 33 66 33 29 0 -17 5 -25 13 -22 15 5 18 78 5
132 -18 77 -20 95 -10 95 6 0 14 -5 17 -10z m568 -34 c2 -16 11 -34 20 -40 14
-11 57 -137 89 -261 6 -22 16 -46 21 -53 6 -7 12 -28 14 -45 1 -18 7 -61 13
-97 5 -36 12 -120 15 -187 7 -145 13 -138 -120 -144 l-80 -4 -3 181 -2 181 40
12 c56 17 64 41 50 155 -10 87 -25 148 -56 244 -13 40 -20 101 -10 91 3 -2 6
-17 9 -33z m-313 -28 c0 -7 -7 -22 -15 -32 -8 -11 -15 -27 -15 -36 0 -38 -82
-156 -102 -144 -16 10 -8 54 18 91 19 28 24 46 21 70 -6 35 5 49 43 56 44 8
50 7 50 -5z m-5120 -65 c0 -7 4 -13 9 -13 5 0 26 -27 46 -60 39 -63 44 -67 63
-48 16 16 23 5 53 -72 79 -205 63 -465 -42 -659 -51 -95 -138 -202 -204 -252
-54 -41 -145 -91 -145 -81 1 4 27 27 59 52 32 25 66 56 76 69 17 23 17 23 -31
-4 -27 -16 -56 -34 -64 -41 -22 -17 -92 -45 -99 -39 -3 3 0 15 7 25 7 11 12
30 12 43 0 33 146 175 162 159 7 -7 26 -12 43 -12 17 0 36 -5 43 -12 7 -7 12
-8 12 -2 0 6 13 30 29 53 l28 43 -45 44 -45 45 44 109 c27 69 46 105 51 97 9
-13 20 -2 50 53 26 45 36 30 31 -44 -3 -38 -1 -66 5 -70 17 -10 35 90 35 200
0 86 -4 108 -18 124 -10 11 -18 30 -19 42 -1 22 -5 23 -76 23 l-75 0 -6 45
c-4 25 -17 64 -28 87 -12 23 -21 45 -21 48 0 12 39 -21 43 -37 6 -20 27 -25
27 -5 0 6 -14 39 -30 72 -36 74 -37 85 -5 55 14 -13 25 -29 25 -37z m5655 27
c3 -5 -1 -10 -10 -10 -9 0 -13 5 -10 10 3 6 8 10 10 10 2 0 7 -4 10 -10z
m-561 -132 c-28 -55 -85 -128 -100 -128 -20 0 -17 12 9 40 31 34 97 129 98
144 1 6 3 3 6 -6 2 -9 -3 -32 -13 -50z m-1216 -32 c129 -8 135 -36 7 -36 l-95
0 0 26 c0 21 3 24 20 19 11 -4 42 -8 68 -9z m1370 -80 c16 30 41 -46 49 -146
7 -110 -9 -203 -53 -295 -48 -102 -88 -143 -146 -151 -44 -6 -48 -5 -48 15 0
14 -6 21 -20 21 -11 0 -20 4 -20 10 0 5 9 14 20 20 12 6 20 21 20 35 0 14 2
25 4 25 2 0 11 3 20 6 10 4 21 -7 36 -35 24 -48 55 -55 70 -15 13 33 13 33
-10 27 -16 -4 -20 0 -21 18 -1 13 -1 28 0 32 1 4 -5 21 -14 36 -13 26 -13 32
1 60 9 17 22 31 30 31 8 0 14 6 14 13 0 7 18 32 40 55 22 22 40 50 40 61 0 11
3 26 6 35 3 9 0 18 -7 20 -91 26 -99 30 -99 50 0 15 3 17 12 8 21 -21 24 -13
21 56 l-4 67 25 -38 c21 -35 25 -37 34 -21z m-5968 -31 c0 -26 -24 -55 -46
-55 -19 0 -18 5 8 51 23 41 38 43 38 4z m3319 8 c3 -6 13 -13 21 -16 8 -3 -11
-6 -42 -6 -44 -1 -58 2 -58 13 0 8 6 16 13 19 19 7 59 1 66 -10z m314 0 c-7
-2 -19 -2 -25 0 -7 3 -2 5 12 5 14 0 19 -2 13 -5z m-482 -21 c-7 -2 -18 1 -23
6 -8 8 -4 9 13 5 13 -4 18 -8 10 -11z m-3033 -4 c-2 -6 -15 -15 -28 -20 -23
-9 -23 -8 -5 12 20 22 39 27 33 8z m-4658 -7 c0 -12 -20 -25 -27 -18 -7 7 6
27 18 27 5 0 9 -4 9 -9z m4139 -17 c2 -2 -10 -4 -27 -4 -18 0 -32 5 -32 10 0
9 47 4 59 -6z m941 0 c-25 -7 -63 -13 -85 -13 l-40 1 50 13 c28 7 66 13 85 13
l35 1 -45 -15z m1180 -27 c0 -18 -2 -19 -10 -7 -13 20 -13 43 0 35 6 -3 10
-16 10 -28z m3912 15 c5 -5 7 -15 4 -21 -10 -15 -36 -14 -36 1 0 9 -3 9 -11 1
-6 -6 -17 -9 -24 -7 -7 3 -15 -4 -18 -16 -5 -18 -12 -21 -54 -18 -38 2 -49 7
-51 22 -3 16 1 18 24 13 30 -5 74 10 87 30 9 15 63 11 79 -5z m-5505 -54 c-17
-75 -26 -91 -45 -83 -9 4 -27 8 -39 9 -29 1 -36 10 -28 35 7 24 82 80 106 81
14 0 15 -6 6 -42z m5597 5 c6 -14 -22 -53 -37 -53 -8 0 -18 51 -12 60 10 16
42 11 49 -7z m-5456 -21 c3 -9 -2 -13 -14 -10 -9 1 -19 9 -22 16 -3 9 2 13 14
10 9 -1 19 -9 22 -16z m327 9 c-13 -13 -118 -42 -170 -48 -52 -6 -63 -18 -42
-41 9 -10 17 -24 17 -31 0 -9 5 -9 20 -1 18 10 20 8 20 -25 0 -20 5 -45 10
-55 8 -16 8 -18 -5 -14 -8 4 -15 2 -15 -4 0 -23 -29 -18 -49 8 -14 20 -22 49
-26 98 l-5 69 52 16 c102 31 212 47 193 28z m4975 -56 c0 -8 -4 -15 -10 -15
-5 0 -10 7 -10 15 0 8 5 15 10 15 6 0 10 -7 10 -15z m-5120 -31 c0 -8 -5 -12
-10 -9 -6 4 -8 11 -5 16 9 14 15 11 15 -7z m-146 -20 c11 -28 6 -41 -19 -52
-35 -16 -35 -16 -35 16 0 44 40 72 54 36z m5101 -14 c-3 -5 -11 -10 -16 -10
-6 0 -7 5 -4 10 3 6 11 10 16 10 6 0 7 -4 4 -10z m259 -66 c14 -88 -14 -234
-45 -234 -6 0 -7 5 -3 12 4 7 3 8 -4 4 -7 -4 -12 -18 -12 -31 0 -32 -15 -39
-50 -25 -37 15 -45 37 -25 67 9 13 20 56 24 96 9 73 36 157 52 157 4 0 13 -8
18 -17 9 -15 10 -14 11 10 0 51 25 23 34 -39z m-5714 -12 c0 -48 -77 -158
-187 -267 -100 -99 -133 -122 -133 -92 0 6 43 52 96 101 95 88 184 204 184
239 0 26 19 59 31 52 5 -4 9 -18 9 -33z m221 22 c11 -14 10 -15 -11 -12 -13 1
-25 9 -28 16 -5 17 23 15 39 -4z m6322 -31 c-7 -2 -19 -2 -25 0 -7 3 -2 5 12
5 14 0 19 -2 13 -5z m330 -20 c-13 -2 -33 -2 -45 0 -13 2 -3 4 22 4 25 0 35
-2 23 -4z m-6855 -131 c-75 -90 -230 -232 -255 -232 -31 0 -7 30 91 113 58 48
133 121 168 163 41 48 64 69 66 59 2 -8 -29 -55 -70 -103z m380 90 c3 -16 -2
-22 -16 -22 -11 0 -23 6 -25 13 -3 7 -6 5 -6 -5 -1 -10 -5 -18 -11 -18 -16 0
-12 13 13 37 26 26 41 24 45 -5z m-119 -40 c5 -10 17 -55 26 -100 21 -103 18
-373 -4 -394 -11 -11 -12 -3 -7 52 8 75 -6 204 -35 327 -20 82 -19 133 1 133
5 0 14 -8 19 -18z m144 1 c-7 -2 -19 -2 -25 0 -7 3 -2 5 12 5 14 0 19 -2 13
-5z m-1496 -67 c0 -42 -2 -45 -34 -51 -18 -3 -37 -4 -42 -1 -5 3 -42 -5 -83
-18 -91 -30 -198 -50 -209 -39 -4 4 4 31 19 58 25 46 31 51 72 57 25 3 72 7
105 8 33 0 74 7 90 15 17 7 42 14 56 14 24 1 26 -2 26 -43z m1287 -53 c8 -27
18 -64 21 -83 8 -40 24 -363 19 -369 -19 -22 -202 5 -271 41 -30 15 -29 20 7
40 22 12 43 15 85 11 42 -4 59 -2 73 10 9 8 28 17 42 19 55 7 61 107 14 264
-13 45 -24 89 -24 98 0 32 19 15 34 -31z m-1304 -58 c-13 -16 -40 -20 -40 -7
0 14 12 22 33 22 16 0 17 -3 7 -15z m7748 -22 c-26 -2 -71 -2 -100 0 -29 2 -8
3 47 3 55 0 79 -1 53 -3z m235 0 c-29 -2 -77 -2 -105 0 -29 2 -6 3 52 3 58 0
81 -1 53 -3z m167 -3 c-36 -3 -74 -3 -85 1 -11 4 17 7 65 7 l85 -1 -65 -7z
m-8296 -6 c9 -3 16 -12 16 -20 0 -15 13 -18 79 -14 29 1 41 -2 37 -9 -4 -6
-21 -11 -39 -11 -32 0 -184 -46 -201 -62 -6 -4 14 -9 45 -10 78 -3 99 -2 146
4 26 3 43 1 46 -6 7 -18 -4 -86 -14 -86 -5 0 -9 -11 -9 -24 0 -14 -4 -28 -10
-31 -5 -3 -10 -1 -10 4 0 6 -9 11 -20 11 -11 0 -20 4 -20 8 0 20 -46 30 -71
16 -15 -8 -58 -13 -119 -14 -150 0 -433 19 -444 30 -12 12 -3 12 134 0 171
-16 183 -9 194 113 2 32 12 69 21 83 15 23 20 24 119 24 58 0 111 -3 120 -6z
m1182 -248 c10 -8 16 -18 11 -22 -4 -4 -13 -2 -19 4 -7 7 -20 12 -30 12 -10 0
-18 5 -18 10 0 15 33 12 56 -4z m989 -408 c50 -24 141 -70 202 -101 62 -31
119 -57 126 -57 8 0 16 -3 20 -6 3 -3 41 -19 84 -34 100 -36 170 -68 179 -81
4 -8 -149 -10 -522 -7 l-529 3 -48 33 c-26 18 -71 44 -100 57 -29 13 -77 47
-106 75 -30 29 -73 63 -94 77 -21 13 -37 26 -35 27 1 2 39 6 83 10 107 8 482
44 520 50 75 10 130 -1 220 -46z"/>
<path d="M5782 5223 c2 -53 6 -68 18 -68 12 0 16 15 18 68 3 62 1 67 -18 67
-19 0 -21 -5 -18 -67z"/>
<path d="M5421 4000 l-23 -5 21 -19 c12 -11 21 -27 21 -38 0 -10 5 -19 10 -19
32 -5 35 -3 32 29 -4 41 4 41 22 -2 l14 -33 123 -2 c68 -1 131 -2 139 -3 47
-4 53 1 47 39 -4 20 -11 41 -16 46 -11 11 -349 17 -390 7z m229 -50 c0 -5 -5
-10 -11 -10 -5 0 -7 5 -4 10 3 6 8 10 11 10 2 0 4 -4 4 -10z"/>
<path d="M5126 3993 c-1 -1 -32 -4 -69 -6 -78 -6 -91 -13 -59 -34 12 -9 22
-23 22 -33 0 -22 26 -34 37 -17 4 7 6 22 4 35 -4 31 11 27 31 -8 13 -23 24
-30 47 -30 42 0 61 9 61 31 0 26 16 24 23 -2 7 -28 38 -21 54 11 l13 25 6 -23
c7 -24 37 -36 75 -30 18 2 25 10 27 31 5 46 -12 57 -88 57 -44 0 -70 -4 -72
-12 -3 -7 -9 -8 -19 -3 -12 8 -87 14 -93 8z m232 -42 c3 -8 -1 -12 -9 -9 -7 2
-15 10 -17 17 -3 8 1 12 9 9 7 -2 15 -10 17 -17z m-208 -6 c0 -8 -4 -15 -9
-15 -13 0 -22 16 -14 24 11 11 23 6 23 -9z"/>
<path d="M7950 3900 l-35 -6 36 -8 c46 -10 91 -4 97 12 4 13 -37 14 -98 2z"/>
<path d="M5310 5905 c0 -8 5 -15 10 -15 6 0 10 7 10 15 0 8 -4 15 -10 15 -5 0
-10 -7 -10 -15z"/>
<path d="M5501 5856 c-8 -9 -11 -19 -7 -23 9 -9 29 13 24 27 -2 8 -8 7 -17 -4z"/>
<path d="M5280 5839 c0 -24 23 -21 28 4 2 10 -3 17 -12 17 -10 0 -16 -9 -16
-21z"/>
<path d="M6170 5603 c0 -36 4 -63 10 -63 13 0 13 90 0 110 -7 11 -10 -3 -10
-47z"/>
<path d="M6221 5603 c-1 -40 3 -63 10 -63 6 0 9 7 6 15 -4 8 -2 17 4 20 5 4 6
11 3 17 -4 6 -11 25 -15 42 -5 25 -7 18 -8 -31z"/>
<path d="M6274 5642 c-9 -14 -8 -23 7 -41 l19 -23 0 31 c0 17 0 34 1 38 1 16
-17 12 -27 -5z"/>
<path d="M6358 5654 c-3 -2 -2 -25 2 -52 5 -26 6 -50 3 -54 -2 -5 5 -8 17 -8
14 0 19 4 14 12 -5 7 -2 9 9 5 27 -10 40 71 15 90 -14 10 -53 15 -60 7z"/>
<path d="M6285 5560 c-8 -13 -1 -24 14 -19 6 3 7 10 2 18 -6 10 -10 10 -16 1z"/>
<path d="M4622 5639 c2 -7 10 -15 17 -17 8 -3 12 1 9 9 -2 7 -10 15 -17 17 -8
3 -12 -1 -9 -9z"/>
<path d="M4760 5635 c0 -8 5 -15 10 -15 6 0 10 7 10 15 0 8 -4 15 -10 15 -5 0
-10 -7 -10 -15z"/>
<path d="M2120 4690 c0 -5 5 -10 11 -10 5 0 7 5 4 10 -3 6 -8 10 -11 10 -2 0
-4 -4 -4 -10z"/>
<path d="M3060 3520 c-17 -32 -8 -54 27 -67 61 -22 102 12 44 38 -20 9 -27 18
-23 31 6 26 -34 24 -48 -2z"/>
<path d="M3150 3520 c0 -5 7 -10 16 -10 8 0 12 5 9 10 -3 6 -10 10 -16 10 -5
0 -9 -4 -9 -10z"/>
<path d="M2982 3154 c-17 -12 -22 -25 -22 -63 0 -44 3 -49 33 -66 24 -13 44
-16 73 -11 21 3 48 6 59 5 11 -1 56 -2 100 -2 73 -1 81 1 90 21 13 29 31 28
51 -3 12 -19 24 -24 52 -24 21 1 60 -2 88 -6 39 -6 57 -4 76 9 21 14 27 14 44
1 12 -9 43 -14 85 -15 76 0 79 3 79 77 0 37 3 44 18 41 13 -2 18 -15 20 -60 2
-40 7 -58 19 -62 27 -11 43 14 43 64 0 39 4 49 20 53 11 3 23 1 26 -4 3 -5 1
-9 -5 -9 -7 0 -7 -9 0 -27 6 -17 7 -29 1 -31 -17 -5 -1 -41 22 -48 60 -19 120
6 131 55 8 36 -16 97 -42 104 -38 11 -205 18 -258 12 l-55 -7 0 -54 c0 -41 -4
-56 -16 -61 -29 -11 -49 12 -54 63 -4 41 -9 49 -27 52 -13 2 -23 -1 -23 -7 0
-6 -14 -4 -35 5 -45 18 -95 18 -123 -1 -19 -14 -24 -14 -46 0 -18 12 -44 15
-102 13 l-79 -3 -7 -54 c-10 -85 -52 -93 -63 -13 -4 26 -8 53 -10 60 -6 18
-135 16 -163 -4z m118 -23 c0 -13 -17 -17 -56 -13 -19 2 -31 8 -28 13 7 12 84
12 84 0z m260 -11 c-20 -13 -40 -13 -40 0 0 6 12 10 28 10 21 0 24 -2 12 -10z
m190 -11 c9 -16 8 -26 -5 -45 -18 -27 -19 -28 -46 -14 -19 10 -27 59 -12 73
14 15 53 6 63 -14z m-125 -38 c3 -5 1 -12 -5 -16 -5 -3 -10 1 -10 9 0 18 6 21
15 7z m-325 -11 c0 -13 -60 -13 -80 0 -11 7 -2 10 33 10 26 0 47 -4 47 -10z"/>
<path d="M1740 3070 c-128 -8 -162 -17 -158 -38 2 -12 27 -21 86 -33 46 -10
86 -19 88 -22 10 -9 24 -138 39 -357 9 -124 21 -229 26 -235 15 -15 130 -18
225 -5 121 16 237 55 309 104 75 52 150 160 185 266 32 99 35 227 6 259 -32
35 -75 50 -176 59 -108 11 -473 12 -630 2z"/>
<path d="M2813 2034 c-101 -22 -173 -45 -173 -55 0 -15 50 -11 181 16 150 31
161 34 154 46 -8 13 -88 10 -162 -7z"/>
<path d="M2500 1958 l-25 -10 23 -15 c43 -30 27 -41 -65 -48 -109 -8 -193 -23
-193 -36 0 -5 36 -9 80 -9 47 0 80 -4 80 -10 0 -13 103 -13 200 0 41 5 147 14
235 20 88 6 164 15 169 20 16 16 -45 23 -161 17 -82 -4 -126 -2 -152 8 -20 7
-61 16 -91 20 -66 9 -83 17 -51 25 14 3 26 11 29 18 5 15 -42 15 -78 0z"/>
<path d="M3043 1953 c-13 -2 -23 -9 -23 -15 0 -6 10 -8 23 -4 12 3 32 6 45 6
13 0 20 4 17 10 -6 10 -22 11 -62 3z"/>
<path d="M2550 3364 c0 -8 5 -12 10 -9 6 4 8 11 5 16 -9 14 -15 11 -15 -7z"/>
<path d="M7152 2723 c2 -12 15 -20 41 -23 21 -3 37 -9 37 -15 -3 -25 150 -22
158 4 3 10 -3 12 -27 6 -19 -4 -31 -3 -31 4 0 5 -20 13 -45 17 -25 3 -48 10
-51 15 -3 5 -23 9 -45 9 -33 0 -40 -3 -37 -17z"/>
<path d="M7548 2713 c7 -3 16 -2 19 1 4 3 -2 6 -13 5 -11 0 -14 -3 -6 -6z"/>
<path d="M10996 2874 c-5 -14 -4 -15 9 -4 17 14 19 20 6 20 -5 0 -12 -7 -15
-16z"/>
</g>
</svg>
